<?xml version="1.0" encoding="UTF-8" standalone="no"?>
<svg
   xmlns:dc="http://purl.org/dc/elements/1.1/"
   xmlns:cc="http://creativecommons.org/ns#"
   xmlns:rdf="http://www.w3.org/1999/02/22-rdf-syntax-ns#"
   xmlns:svg="http://www.w3.org/2000/svg"
   xmlns="http://www.w3.org/2000/svg"
   xmlns:sodipodi="http://sodipodi.sourceforge.net/DTD/sodipodi-0.dtd"
   xmlns:inkscape="http://www.inkscape.org/namespaces/inkscape"
   version="1.1"
   id="Layer_1"
   x="0px"
   y="0px"
   width="10.00"
   height="7.1838702"
   viewBox="0 0 999.99997 718.38702"
   enable-background="new 0 0 666.142 870.236"
   xml:space="preserve"
   inkscape:version="0.91 r13725"
   sodipodi:docname="Lexus L.svg"><metadata
   id="metadata9"><rdf:RDF><cc:Work
       rdf:about=""><dc:format>image/svg+xml</dc:format><dc:type
         rdf:resource="http://purl.org/dc/dcmitype/StillImage" /><dc:title></dc:title></cc:Work></rdf:RDF></metadata><defs
   id="defs7" /><sodipodi:namedview
   pagecolor="#ffffff"
   bordercolor="#666666"
   borderopacity="1"
   objecttolerance="10"
   gridtolerance="10"
   guidetolerance="10"
   inkscape:pageopacity="0"
   inkscape:pageshadow="2"
   inkscape:window-width="1366"
   inkscape:window-height="705"
   id="namedview5"
   showgrid="false"
   inkscape:zoom="0.74211207"
   inkscape:cx="542.92313"
   inkscape:cy="354.18345"
   inkscape:window-x="-8"
   inkscape:window-y="-8"
   inkscape:window-maximized="1"
   inkscape:current-layer="Layer_1" />
<path
   style="clip-rule:evenodd;fill-rule:evenodd"
   inkscape:connector-curvature="0"
   id="path13"
   d="m 499.95704,718.38699 c 165.53479,0 312.32978,-57.82396 403.36388,-146.82364 l -82.00808,0.3438 c -77.50934,65.21677 -190.86498,106.24943 -319.32138,106.24943 -239.63434,0 -426.717025,-142.81209 -426.717025,-318.97756 0,-203.18631 187.054035,-318.94892 426.717025,-318.94892 15.21533,0.0573 27.42198,7.07756 18.28135,20.25845 -49.77221,59.97311 -191.52411,252.87259 -217.39877,294.65029 -51.00432,82.40923 -49.80085,183.87341 75.18839,190.97967 l 525.51644,0 c 26.84888,0 33.66854,-12.60781 43.35367,-25.7314 35.21587,-47.56585 53.09606,-103.21214 53.06741,-161.20804 C 999.88521,207.79939 893.32071,94.32911 736.58272,38.5109 l -24.27008,36.24745 c 130.2616,48.05295 216.39588,145.16173 216.39588,284.42072 0,24.21272 -3.52446,47.76639 -10.22955,70.40313 -5.78815,19.65674 -17.19243,36.30479 -38.76902,36.30479 l -419.46755,0 c -53.72644,0 -32.98086,-55.41707 -13.0949,-82.29462 C 476.00219,331.84305 634.05825,116.39278 672.13959,76.24836 681.85333,61.54881 709.04604,31.03218 671.56625,19.36996 618.04063,6.6761898 560.24527,-2.2024414e-4 499.98568,-2.2024414e-4 223.846,-2.2024414e-4 0.14335097,141.78032 8.0409652e-5,359.17907 -0.17184425,578.64092 223.81735,718.38699 499.95704,718.38699"
   clip-path="none" />
</svg>